<svg width="61" height="49" viewBox="0 0 61 49" fill="none" xmlns="http://www.w3.org/2000/svg">
<rect width="61" height="49" rx="5" fill="#ED1A25"/>
<path fill-rule="evenodd" clip-rule="evenodd" d="M38.9764 30.3478L46.7866 38.158C47.0711 38.4425 47.0711 38.9026 46.7866 39.1872L46.1872 39.7866C45.9026 40.0711 45.4425 40.0711 45.158 39.7866L37.3478 31.9764C37.2146 31.8372 37.1359 31.6555 37.1359 31.4618V30.8442C34.8897 32.9148 31.8928 34.1863 28.5931 34.1863C21.6366 34.1863 16 28.5496 16 21.5931C16 14.6366 21.6366 9 28.5931 9C35.5496 9 41.1863 14.6366 41.1863 21.5931C41.1863 24.8928 39.9148 27.8897 37.8382 30.1359H38.4618C38.6555 30.1359 38.8372 30.2085 38.9764 30.3478ZM17.9374 21.5931C17.9374 27.4841 22.7022 32.2489 28.5931 32.2489C34.4841 32.2489 39.2489 27.4841 39.2489 21.5931C39.2489 15.7022 34.4841 10.9374 28.5931 10.9374C22.7022 10.9374 17.9374 15.7022 17.9374 21.5931Z" fill="white"/>
</svg>
